<svg width="32" height="32" viewBox="0 0 32 32" fill="none" xmlns="http://www.w3.org/2000/svg">
  <rect width="32" height="32" rx="8" fill="#111827"/>
  <circle cx="16" cy="16" r="10.5" fill="#2563EB"/>
  <path d="M8.5 16C10.4 12.8 13 11.2 16 11.2C19 11.2 21.6 12.8 23.5 16C21.6 19.2 19 20.8 16 20.8C13 20.8 10.4 19.2 8.5 16Z" fill="#38BDF8"/>
  <circle cx="16" cy="16" r="3.2" fill="#F8FAFC"/>
  <circle cx="9.5" cy="16" r="1.8" fill="#F8FAFC"/>
  <circle cx="22.5" cy="16" r="1.8" fill="#F8FAFC"/>
  <path d="M16 8.2V23.8" stroke="#93C5FD" stroke-width="1.5" stroke-linecap="round"/>
  <path d="M9.5 16H22.5" stroke="#93C5FD" stroke-width="1.5" stroke-linecap="round"/>
  <path d="M12.4 9.9C10.5 12.5 10.5 19.5 12.4 22.1" stroke="#DBEAFE" stroke-width="1.3" stroke-linecap="round"/>
  <path d="M19.6 9.9C21.5 12.5 21.5 19.5 19.6 22.1" stroke="#DBEAFE" stroke-width="1.3" stroke-linecap="round"/>
</svg>
